<svg width="20" height="20" viewBox="0 0 20 20" fill="none" xmlns="http://www.w3.org/2000/svg">
<path d="M9.51004 14.788C9.19359 14.788 8.88424 14.8818 8.62112 15.0577C8.358 15.2335 8.15293 15.4833 8.03183 15.7757C7.91073 16.0681 7.87904 16.3898 7.94078 16.7001C8.00251 17.0105 8.1549 17.2956 8.37867 17.5194C8.60243 17.7431 8.88752 17.8955 9.19789 17.9573C9.50826 18.019 9.82997 17.9873 10.1223 17.8662C10.4147 17.7451 10.6646 17.54 10.8404 17.2769C11.0162 17.0138 11.11 16.7045 11.11 16.388C11.11 15.9637 10.9415 15.5567 10.6414 15.2566C10.3414 14.9566 9.93438 14.788 9.51004 14.788ZM9.51004 17.188C9.35181 17.188 9.19714 17.1411 9.06558 17.0532C8.93402 16.9653 8.83148 16.8403 8.77093 16.6942C8.71038 16.548 8.69454 16.3871 8.72541 16.2319C8.75628 16.0767 8.83247 15.9342 8.94435 15.8223C9.05623 15.7104 9.19878 15.6342 9.35396 15.6034C9.50915 15.5725 9.67 15.5883 9.81618 15.6489C9.96237 15.7094 10.0873 15.812 10.1752 15.9435C10.2631 16.0751 10.31 16.2298 10.31 16.388C10.3085 16.5991 10.2235 16.8011 10.0736 16.9498C9.92376 17.0985 9.72118 17.182 9.51004 17.182V17.188Z" fill="black"/>
<path d="M15.3639 14.788C15.0475 14.788 14.7381 14.8818 14.475 15.0577C14.2119 15.2335 14.0068 15.4833 13.8857 15.7757C13.7646 16.0681 13.7329 16.3898 13.7947 16.7001C13.8564 17.0105 14.0088 17.2956 14.2325 17.5194C14.4563 17.7431 14.7414 17.8955 15.0518 17.9573C15.3621 18.019 15.6838 17.9873 15.9762 17.8662C16.2686 17.7451 16.5185 17.54 16.6943 17.2769C16.8701 17.0138 16.9639 16.7045 16.9639 16.388C16.9639 15.9637 16.7953 15.5567 16.4953 15.2566C16.1952 14.9566 15.7883 14.788 15.3639 14.788ZM15.3639 17.188C15.2057 17.188 15.051 17.1411 14.9195 17.0532C14.7879 16.9653 14.6854 16.8403 14.6248 16.6942C14.5643 16.548 14.5484 16.3871 14.5793 16.2319C14.6102 16.0767 14.6863 15.9342 14.7982 15.8223C14.9101 15.7104 15.0527 15.6342 15.2078 15.6034C15.363 15.5725 15.5239 15.5883 15.6701 15.6489C15.8162 15.7094 15.9412 15.812 16.0291 15.9435C16.117 16.0751 16.1639 16.2298 16.1639 16.388C16.1623 16.5991 16.0773 16.8011 15.9275 16.9498C15.7776 17.0985 15.5751 17.182 15.3639 17.182V17.188Z" fill="black"/>
<path d="M17.75 12.35L19.368 5.126C19.4102 4.93712 19.4095 4.74115 19.3658 4.55259C19.3222 4.36403 19.2367 4.18768 19.1158 4.03658C18.9948 3.88548 18.8414 3.76349 18.667 3.67961C18.4926 3.59574 18.3015 3.55213 18.108 3.552H5.49398L5.24598 2.338C5.22727 2.24629 5.17701 2.16404 5.10392 2.10557C5.03083 2.0471 4.93955 2.01611 4.84598 2.018H0.999976C0.893889 2.018 0.792147 2.06014 0.717133 2.13516C0.642118 2.21017 0.599976 2.31191 0.599976 2.418C0.599976 2.52409 0.642118 2.62583 0.717133 2.70084C0.792147 2.77586 0.893889 2.818 0.999976 2.818H4.52798L4.77598 4.032L6.47598 12.342L6.85798 14.2C6.87668 14.2917 6.92695 14.374 7.00003 14.4324C7.07312 14.4909 7.1644 14.5219 7.25798 14.52H18.424C18.5301 14.52 18.6318 14.4779 18.7068 14.4028C18.7818 14.3278 18.824 14.2261 18.824 14.12C18.824 14.0139 18.7818 13.9122 18.7068 13.8372C18.6318 13.7621 18.5301 13.72 18.424 13.72H7.57598L7.35798 12.658H17.358C17.4485 12.6586 17.5366 12.6285 17.6078 12.5725C17.679 12.5166 17.7291 12.4381 17.75 12.35ZM7.19998 11.862L5.65798 4.352H18.108C18.1819 4.35162 18.2549 4.36797 18.3216 4.39981C18.3883 4.43166 18.4469 4.47818 18.4931 4.53589C18.5393 4.59361 18.5718 4.66102 18.5882 4.73308C18.6047 4.80514 18.6046 4.87998 18.588 4.952L17.038 11.862H7.19998Z" fill="black"/>
</svg>
