<svg width="88" height="25" viewBox="0 0 88 25" fill="none" xmlns="http://www.w3.org/2000/svg">
<path d="M15.3766 10.3922C14.7405 9.16165 14.381 7.73467 14.381 6.21462V0.465321C13.5698 0.206809 12.7217 0.0517023 11.8459 0V6.21462C11.8459 8.25169 12.3345 10.1647 13.1826 11.8192C14.0307 13.4736 15.266 14.9006 16.8423 15.9243L20.5205 18.3026C20.9077 17.4547 21.2027 16.5344 21.387 15.5831L18.1053 13.4529C16.9345 12.6878 16.0127 11.6227 15.3766 10.3922Z" fill="white"/>
<path d="M22.8341 10.6403L20.0133 8.81008C19.4417 8.43782 18.99 7.9208 18.6766 7.31071C18.3632 6.71096 18.188 6.00781 18.188 5.2633V3.43303C17.4321 2.67818 16.584 2.03707 15.653 1.55107V5.27364C15.653 6.53517 15.9572 7.72433 16.4826 8.73769C17.0081 9.7614 17.7732 10.6403 18.7411 11.2711L22.7973 13.8976C22.871 13.3082 22.9079 12.7084 22.9079 12.0983C22.9079 11.602 22.8802 11.116 22.8341 10.6403ZM6.05656 8.73769C5.53111 9.7614 4.76598 10.6403 3.78882 11.2711L0.931102 13.1221C0.903447 12.7808 0.88501 12.4396 0.88501 12.0983C0.88501 11.2814 0.958757 10.4956 1.09703 9.73038L2.51667 8.81008C3.08822 8.43782 3.53992 7.9208 3.85335 7.31071C4.15756 6.71096 4.34193 6.00781 4.34193 5.2633V1.60277C5.11628 0.951323 5.97359 0.413619 6.877 0V5.2633C6.88622 6.53517 6.58201 7.71399 6.05656 8.73769Z" fill="white"/>
<path d="M9.35673 11.3819C10.2048 9.72747 10.6934 7.81449 10.6934 5.77742V1.00012C9.81765 1.05182 8.96033 1.22761 8.15833 1.51715V5.78776C8.15833 7.30781 7.78959 8.73479 7.16274 9.9653C6.52666 11.1958 5.60482 12.2609 4.43407 13.0261L0 15.8904C0.221243 16.8314 0.53467 17.731 0.921845 18.5789L5.697 15.4871C7.27336 14.4737 8.50863 13.0364 9.35673 11.3819ZM11.2649 19.3544C12.3158 19.3544 13.3852 19.6543 14.3531 20.2851L17.2201 22.136C16.3996 22.7875 15.487 23.3045 14.5098 23.6664L13.0902 22.7461C12.5187 22.3739 11.8918 22.1981 11.2649 22.1981C10.6473 22.1981 10.0205 22.3739 9.43969 22.7461L6.60963 24.5764C5.71544 24.1317 4.87656 23.5734 4.11143 22.9116L8.16755 20.2851C9.15392 19.6543 10.214 19.3544 11.2649 19.3544Z" fill="white"/>
<path d="M16.2613 16.5013C14.6849 15.4776 12.9703 15.0019 11.2649 15.0019C9.56866 15.0019 7.8448 15.4776 6.26844 16.5013L2.58105 18.89C3.0512 19.6965 3.61352 20.441 4.2496 21.0925L7.54059 18.9623C8.71134 18.1972 10.0019 17.8456 11.2649 17.8456C12.537 17.8456 13.8184 18.2075 14.9891 18.9623L19.4232 21.837C20.0316 21.1649 20.5755 20.41 21.0457 19.6035L16.2613 16.5013Z" fill="white"/>
<path d="M60.5354 12.0974C60.7576 12.1867 60.962 12.276 61.0864 12.3355C61.6375 12.5636 62.0553 12.8413 62.3486 13.1587C62.8285 13.6943 63.0774 14.3688 63.0774 15.1524C63.0774 16.1145 62.6863 17.0171 61.993 17.6122C61.362 18.1676 60.5354 18.4553 59.5399 18.4553C57.9667 18.4553 56.749 17.7709 56.038 17.2353L57.0779 15.2516C57.9934 15.9657 58.9444 16.2137 59.6021 16.2137C60.1976 16.2137 60.7398 15.9955 60.7398 15.3805C60.7398 14.8846 60.2954 14.6564 59.8332 14.4779L59.8154 14.468C59.7443 14.4382 59.6732 14.4085 59.5843 14.3787L59.5577 14.3688L59.451 14.3291L59.371 14.2994C59.0333 14.1605 58.6689 14.0217 58.4644 13.9225C58.4289 13.9026 58.3933 13.8828 58.3578 13.8729C58.1178 13.7538 57.7267 13.5555 57.3801 13.1885C56.8912 12.6826 56.6512 12.028 56.6512 11.1948C56.6512 10.0046 57.2556 9.27062 57.6201 8.93339C58.18 8.4077 59.0244 8.12006 60.0199 8.12006C61.042 8.12006 62.0997 8.41762 62.9796 9.09209L61.9753 10.9865C61.3086 10.4311 60.562 10.2625 59.9665 10.2625C59.6732 10.2625 58.9799 10.3319 58.9799 10.9667C58.9799 11.423 59.3355 11.6114 59.771 11.7999C59.9665 11.8891 60.2154 11.9883 60.4643 12.0974H60.5354ZM64.0729 10.3518H66.3216V18.2867H68.6681V10.3518H70.9168V8.20933H64.064C64.0729 8.20933 64.0729 10.3518 64.0729 10.3518ZM77.7784 14.1803H74.3654V16.1046H78.0984V18.2867H72.0278V8.20933H77.9829V10.3716H74.3654V12.028H77.7784V14.1803ZM86.5422 9.4194C85.9645 8.87388 84.8979 8.20933 83.0758 8.20933H79.9649V18.2867H83.0758C84.8801 18.2867 85.9556 17.632 86.5333 17.0865C87.511 16.1641 87.9998 14.8747 87.9998 13.248C88.0087 11.6114 87.511 10.322 86.5422 9.4194ZM84.9068 15.4301C84.5157 15.8566 83.9024 16.0847 83.1913 16.0847H82.3025V10.3617H83.1913C84.1424 10.3617 84.6757 10.7683 84.9068 11.0064C85.3867 11.5222 85.6356 12.3355 85.6356 13.248C85.6356 14.1605 85.3956 14.9143 84.9068 15.4301ZM34.1019 10.9667C34.1019 11.8495 33.702 12.5537 32.9998 12.9802C33.9775 13.3869 34.5552 14.2399 34.5552 15.3309C34.5552 16.3327 34.2264 17.0568 33.5331 17.6221C32.9909 18.0685 32.2088 18.2867 31.2044 18.2867H27.4891V8.20933H30.9911C31.9154 8.20933 32.6443 8.41762 33.1509 8.82428C33.7997 9.35989 34.1019 10.0344 34.1019 10.9667ZM29.8267 16.0847H30.8044C31.7288 16.0847 32.1821 15.7078 32.1821 15.073C32.1821 14.4779 31.6932 14.0613 30.8044 14.0613H29.8267V16.0847ZM30.6711 10.3617H29.809V12.1371H30.6711C31.5955 12.1371 31.8888 11.78 31.8888 11.2444C31.8888 10.6989 31.5244 10.3617 30.6711 10.3617ZM40.3503 8.00104C37.755 8.00104 35.6574 10.3518 35.6574 13.2381C35.6574 16.1343 37.7639 18.4751 40.3503 18.4751C42.9368 18.4751 45.0433 16.1244 45.0433 13.2282C45.0522 10.3518 42.9457 8.00104 40.3503 8.00104ZM40.3503 16.1046C38.9371 16.1046 37.7905 14.8251 37.7905 13.248C37.7905 11.6709 38.9371 10.3914 40.3503 10.3914C41.7635 10.3914 42.9101 11.6709 42.9101 13.248C42.919 14.8251 41.7724 16.1046 40.3503 16.1046ZM46.1632 13.2381C46.1632 10.3418 48.2697 8.00104 50.8562 8.00104C53.4515 8.00104 55.5491 10.3518 55.5491 13.2381C55.5491 16.1343 53.4426 18.4751 50.8562 18.4751C48.2697 18.485 46.1632 16.1343 46.1632 13.2381ZM48.2964 13.2381C48.2964 14.8151 49.4429 16.0946 50.8562 16.0946C52.2694 16.0946 53.4159 14.8151 53.4159 13.2381C53.4159 11.661 52.2694 10.3815 50.8562 10.3815C49.4429 10.3815 48.2964 11.661 48.2964 13.2381Z" fill="white"/>
</svg>
