<svg width="20" height="20" viewBox="0 0 20 20" fill="none" xmlns="http://www.w3.org/2000/svg">
<path d="M19.4 10C19.4 8.44806 19.0157 6.92025 18.2815 5.55296C17.5473 4.18567 16.486 3.02144 15.1923 2.16418C13.8986 1.30692 12.4128 0.783305 10.8675 0.640076C9.32218 0.496847 7.76544 0.738459 6.33623 1.34335C4.90702 1.94823 3.64981 2.89757 2.67682 4.10663C1.70382 5.31569 1.04533 6.74684 0.760097 8.27235C0.474868 9.79786 0.571784 11.3703 1.04219 12.8492C1.5126 14.3281 2.34187 15.6676 3.45598 16.748C5.19824 18.4395 7.52824 19.3899 9.9565 19.3996C12.3848 19.4093 14.7223 18.4775 16.478 16.8C16.5165 16.7747 16.5503 16.7429 16.578 16.706C17.4714 15.8326 18.1813 14.7895 18.666 13.6379C19.1506 12.4863 19.4001 11.2494 19.4 10ZM9.99998 1.4C11.6631 1.40126 13.2902 1.88472 14.6841 2.79183C16.0781 3.69893 17.1791 4.99077 17.8539 6.51086C18.5286 8.03096 18.7482 9.71409 18.4858 11.3564C18.2235 12.9987 17.4907 14.5297 16.376 15.764C15.9335 14.8871 15.314 14.1115 14.5567 13.486C13.7994 12.8606 12.9207 12.3989 11.976 12.13C12.7594 11.6918 13.3753 11.0062 13.7272 10.1805C14.0791 9.35475 14.1472 8.43561 13.9208 7.56704C13.6944 6.69847 13.1863 5.92954 12.4761 5.3807C11.7658 4.83186 10.8936 4.53412 9.99598 4.53412C9.09839 4.53412 8.22615 4.83186 7.51591 5.3807C6.80566 5.92954 6.29754 6.69847 6.07113 7.56704C5.84472 8.43561 5.91282 9.35475 6.26476 10.1805C6.61671 11.0062 7.23261 11.6918 8.01598 12.13C7.07101 12.3989 6.19208 12.8608 5.43474 13.4867C4.67739 14.1125 4.05809 14.8886 3.61598 15.766C2.18187 14.189 1.39117 12.1316 1.39998 10C1.39998 7.71914 2.30605 5.53169 3.91886 3.91888C5.53167 2.30607 7.71912 1.4 9.99998 1.4ZM9.99998 11.85C9.35575 11.85 8.726 11.6589 8.19042 11.3008C7.65484 10.9428 7.23752 10.4339 6.99126 9.83863C6.745 9.24332 6.68087 8.58834 6.80699 7.95658C6.93311 7.32481 7.24381 6.74466 7.69977 6.28954C8.15573 5.83442 8.73645 5.52479 9.36845 5.39983C10.0004 5.27488 10.6553 5.34021 11.2502 5.58757C11.845 5.83493 12.3531 6.2532 12.7102 6.78943C13.0672 7.32567 13.2572 7.95577 13.256 8.6C13.2539 9.46234 12.91 10.2887 12.2996 10.8979C11.6893 11.5071 10.8623 11.8495 9.99998 11.85ZM4.22398 16.368C4.72848 15.2594 5.54135 14.3194 6.56555 13.6603C7.58975 13.0011 8.782 12.6506 9.99998 12.6506C11.218 12.6506 12.4102 13.0011 13.4344 13.6603C14.4586 14.3194 15.2715 15.2594 15.776 16.368C14.1955 17.805 12.1361 18.6013 9.99998 18.6013C7.86387 18.6013 5.80447 17.805 4.22398 16.368Z" fill="black"/>
</svg>
